<svg xmlns="http://www.w3.org/2000/svg" xmlns:xlink="http://www.w3.org/1999/xlink" width="48" zoomAndPan="magnify" viewBox="0 0 36 36.000001" height="48" preserveAspectRatio="xMidYMid meet" version="1.0"><defs><clipPath id="84a59cecd3"><path d="M 0.792969 0 L 35.511719 0 L 35.511719 35.027344 L 0.792969 35.027344 Z M 0.792969 0 " clip-rule="nonzero"/></clipPath><clipPath id="156bbaebcb"><path d="M 18.304688 0 C 8.632812 0 0.792969 7.839844 0.792969 17.511719 C 0.792969 27.1875 8.632812 35.027344 18.304688 35.027344 C 27.976562 35.027344 35.820312 27.1875 35.820312 17.511719 C 35.820312 7.839844 27.976562 0 18.304688 0 Z M 18.304688 0 " clip-rule="nonzero"/></clipPath><linearGradient x1="-0.000000138521" gradientTransform="matrix(0.136824, 0, 0, 0.136824, 0.791911, 0.00000194595)" y1="128" x2="253.76775" gradientUnits="userSpaceOnUse" y2="128" id="23c97e5c78"><stop stop-opacity="1" stop-color="rgb(0%, 59.199524%, 69.799805%)" offset="0"/><stop stop-opacity="1" stop-color="rgb(0.190735%, 59.298706%, 69.66095%)" offset="0.0078125"/><stop stop-opacity="1" stop-color="rgb(0.572205%, 59.500122%, 69.38324%)" offset="0.015625"/><stop stop-opacity="1" stop-color="rgb(0.9552%, 59.700012%, 69.107056%)" offset="0.0234375"/><stop stop-opacity="1" stop-color="rgb(1.338196%, 59.901428%, 68.830872%)" offset="0.03125"/><stop stop-opacity="1" stop-color="rgb(1.719666%, 60.101318%, 68.554688%)" offset="0.0390625"/><stop stop-opacity="1" stop-color="rgb(2.102661%, 60.302734%, 68.278503%)" offset="0.046875"/><stop stop-opacity="1" stop-color="rgb(2.485657%, 60.502625%, 68.000793%)" offset="0.0546875"/><stop stop-opacity="1" stop-color="rgb(2.868652%, 60.702515%, 67.724609%)" offset="0.0625"/><stop stop-opacity="1" stop-color="rgb(3.250122%, 60.903931%, 67.448425%)" offset="0.0703125"/><stop stop-opacity="1" stop-color="rgb(3.633118%, 61.103821%, 67.172241%)" offset="0.078125"/><stop stop-opacity="1" stop-color="rgb(4.016113%, 61.305237%, 66.896057%)" offset="0.0859375"/><stop stop-opacity="1" stop-color="rgb(4.397583%, 61.505127%, 66.619873%)" offset="0.09375"/><stop stop-opacity="1" stop-color="rgb(4.780579%, 61.706543%, 66.342163%)" offset="0.101562"/><stop stop-opacity="1" stop-color="rgb(5.163574%, 61.906433%, 66.065979%)" offset="0.109375"/><stop stop-opacity="1" stop-color="rgb(5.54657%, 62.107849%, 65.789795%)" offset="0.117188"/><stop stop-opacity="1" stop-color="rgb(5.92804%, 62.307739%, 65.513611%)" offset="0.125"/><stop stop-opacity="1" stop-color="rgb(6.311035%, 62.507629%, 65.237427%)" offset="0.132812"/><stop stop-opacity="1" stop-color="rgb(6.694031%, 62.709045%, 64.959717%)" offset="0.140625"/><stop stop-opacity="1" stop-color="rgb(7.077026%, 62.908936%, 64.683533%)" offset="0.148438"/><stop stop-opacity="1" stop-color="rgb(7.458496%, 63.110352%, 64.407349%)" offset="0.15625"/><stop stop-opacity="1" stop-color="rgb(7.841492%, 63.310242%, 64.131165%)" offset="0.164062"/><stop stop-opacity="1" stop-color="rgb(8.224487%, 63.511658%, 63.85498%)" offset="0.171875"/><stop stop-opacity="1" stop-color="rgb(8.605957%, 63.711548%, 63.577271%)" offset="0.179688"/><stop stop-opacity="1" stop-color="rgb(8.988953%, 63.912964%, 63.301086%)" offset="0.1875"/><stop stop-opacity="1" stop-color="rgb(9.371948%, 64.112854%, 63.024902%)" offset="0.195312"/><stop stop-opacity="1" stop-color="rgb(9.754944%, 64.31427%, 62.748718%)" offset="0.203125"/><stop stop-opacity="1" stop-color="rgb(10.136414%, 64.51416%, 62.472534%)" offset="0.210937"/><stop stop-opacity="1" stop-color="rgb(10.519409%, 64.71405%, 62.194824%)" offset="0.21875"/><stop stop-opacity="1" stop-color="rgb(10.902405%, 64.915466%, 61.91864%)" offset="0.226563"/><stop stop-opacity="1" stop-color="rgb(11.283875%, 65.115356%, 61.642456%)" offset="0.234375"/><stop stop-opacity="1" stop-color="rgb(11.66687%, 65.316772%, 61.366272%)" offset="0.242188"/><stop stop-opacity="1" stop-color="rgb(12.049866%, 65.516663%, 61.090088%)" offset="0.25"/><stop stop-opacity="1" stop-color="rgb(12.432861%, 65.718079%, 60.813904%)" offset="0.257812"/><stop stop-opacity="1" stop-color="rgb(12.814331%, 65.917969%, 60.536194%)" offset="0.265625"/><stop stop-opacity="1" stop-color="rgb(13.197327%, 66.119385%, 60.26001%)" offset="0.273438"/><stop stop-opacity="1" stop-color="rgb(13.580322%, 66.319275%, 59.983826%)" offset="0.28125"/><stop stop-opacity="1" stop-color="rgb(13.963318%, 66.520691%, 59.707642%)" offset="0.289062"/><stop stop-opacity="1" stop-color="rgb(14.344788%, 66.720581%, 59.431458%)" offset="0.296875"/><stop stop-opacity="1" stop-color="rgb(14.727783%, 66.920471%, 59.153748%)" offset="0.304688"/><stop stop-opacity="1" stop-color="rgb(15.110779%, 67.121887%, 58.877563%)" offset="0.3125"/><stop stop-opacity="1" stop-color="rgb(15.492249%, 67.321777%, 58.601379%)" offset="0.320312"/><stop stop-opacity="1" stop-color="rgb(15.875244%, 67.523193%, 58.325195%)" offset="0.328125"/><stop stop-opacity="1" stop-color="rgb(16.25824%, 67.723083%, 58.049011%)" offset="0.335938"/><stop stop-opacity="1" stop-color="rgb(16.641235%, 67.9245%, 57.771301%)" offset="0.34375"/><stop stop-opacity="1" stop-color="rgb(17.022705%, 68.12439%, 57.495117%)" offset="0.351562"/><stop stop-opacity="1" stop-color="rgb(17.405701%, 68.325806%, 57.218933%)" offset="0.359375"/><stop stop-opacity="1" stop-color="rgb(17.788696%, 68.525696%, 56.942749%)" offset="0.367188"/><stop stop-opacity="1" stop-color="rgb(18.170166%, 68.725586%, 56.666565%)" offset="0.375"/><stop stop-opacity="1" stop-color="rgb(18.553162%, 68.927002%, 56.388855%)" offset="0.382813"/><stop stop-opacity="1" stop-color="rgb(18.936157%, 69.126892%, 56.112671%)" offset="0.390625"/><stop stop-opacity="1" stop-color="rgb(19.319153%, 69.328308%, 55.836487%)" offset="0.398438"/><stop stop-opacity="1" stop-color="rgb(19.700623%, 69.528198%, 55.560303%)" offset="0.40625"/><stop stop-opacity="1" stop-color="rgb(20.083618%, 69.729614%, 55.284119%)" offset="0.414062"/><stop stop-opacity="1" stop-color="rgb(20.466614%, 69.929504%, 55.007935%)" offset="0.421875"/><stop stop-opacity="1" stop-color="rgb(20.849609%, 70.13092%, 54.730225%)" offset="0.429688"/><stop stop-opacity="1" stop-color="rgb(21.231079%, 70.330811%, 54.454041%)" offset="0.4375"/><stop stop-opacity="1" stop-color="rgb(21.614075%, 70.532227%, 54.177856%)" offset="0.445312"/><stop stop-opacity="1" stop-color="rgb(21.99707%, 70.732117%, 53.901672%)" offset="0.453125"/><stop stop-opacity="1" stop-color="rgb(22.37854%, 70.932007%, 53.625488%)" offset="0.460938"/><stop stop-opacity="1" stop-color="rgb(22.761536%, 71.133423%, 53.347778%)" offset="0.46875"/><stop stop-opacity="1" stop-color="rgb(23.144531%, 71.333313%, 53.071594%)" offset="0.476562"/><stop stop-opacity="1" stop-color="rgb(23.527527%, 71.534729%, 52.79541%)" offset="0.484375"/><stop stop-opacity="1" stop-color="rgb(23.908997%, 71.734619%, 52.519226%)" offset="0.492188"/><stop stop-opacity="1" stop-color="rgb(24.291992%, 71.936035%, 52.243042%)" offset="0.5"/><stop stop-opacity="1" stop-color="rgb(24.674988%, 72.135925%, 51.965332%)" offset="0.507812"/><stop stop-opacity="1" stop-color="rgb(25.056458%, 72.337341%, 51.689148%)" offset="0.515625"/><stop stop-opacity="1" stop-color="rgb(25.439453%, 72.537231%, 51.412964%)" offset="0.523438"/><stop stop-opacity="1" stop-color="rgb(25.822449%, 72.738647%, 51.13678%)" offset="0.53125"/><stop stop-opacity="1" stop-color="rgb(26.205444%, 72.938538%, 50.860596%)" offset="0.539063"/><stop stop-opacity="1" stop-color="rgb(26.586914%, 73.138428%, 50.584412%)" offset="0.546875"/><stop stop-opacity="1" stop-color="rgb(26.96991%, 73.339844%, 50.306702%)" offset="0.554688"/><stop stop-opacity="1" stop-color="rgb(27.352905%, 73.539734%, 50.030518%)" offset="0.5625"/><stop stop-opacity="1" stop-color="rgb(27.735901%, 73.74115%, 49.754333%)" offset="0.570312"/><stop stop-opacity="1" stop-color="rgb(28.117371%, 73.94104%, 49.478149%)" offset="0.578125"/><stop stop-opacity="1" stop-color="rgb(28.500366%, 74.142456%, 49.201965%)" offset="0.585938"/><stop stop-opacity="1" stop-color="rgb(28.883362%, 74.342346%, 48.924255%)" offset="0.59375"/><stop stop-opacity="1" stop-color="rgb(29.264832%, 74.543762%, 48.648071%)" offset="0.601562"/><stop stop-opacity="1" stop-color="rgb(29.647827%, 74.743652%, 48.371887%)" offset="0.609375"/><stop stop-opacity="1" stop-color="rgb(30.030823%, 74.943542%, 48.095703%)" offset="0.617188"/><stop stop-opacity="1" stop-color="rgb(30.413818%, 75.144958%, 47.819519%)" offset="0.625"/><stop stop-opacity="1" stop-color="rgb(30.795288%, 75.344849%, 47.541809%)" offset="0.632813"/><stop stop-opacity="1" stop-color="rgb(31.178284%, 75.546265%, 47.265625%)" offset="0.640625"/><stop stop-opacity="1" stop-color="rgb(31.561279%, 75.746155%, 46.989441%)" offset="0.648438"/><stop stop-opacity="1" stop-color="rgb(31.942749%, 75.947571%, 46.713257%)" offset="0.65625"/><stop stop-opacity="1" stop-color="rgb(32.325745%, 76.147461%, 46.437073%)" offset="0.664062"/><stop stop-opacity="1" stop-color="rgb(32.70874%, 76.348877%, 46.159363%)" offset="0.671875"/><stop stop-opacity="1" stop-color="rgb(33.091736%, 76.548767%, 45.883179%)" offset="0.679688"/><stop stop-opacity="1" stop-color="rgb(33.473206%, 76.750183%, 45.606995%)" offset="0.6875"/><stop stop-opacity="1" stop-color="rgb(33.856201%, 76.950073%, 45.330811%)" offset="0.695312"/><stop stop-opacity="1" stop-color="rgb(34.239197%, 77.149963%, 45.054626%)" offset="0.703125"/><stop stop-opacity="1" stop-color="rgb(34.622192%, 77.351379%, 44.778442%)" offset="0.710938"/><stop stop-opacity="1" stop-color="rgb(35.003662%, 77.55127%, 44.500732%)" offset="0.71875"/><stop stop-opacity="1" stop-color="rgb(35.386658%, 77.752686%, 44.224548%)" offset="0.726563"/><stop stop-opacity="1" stop-color="rgb(35.769653%, 77.952576%, 43.948364%)" offset="0.734375"/><stop stop-opacity="1" stop-color="rgb(36.151123%, 78.153992%, 43.67218%)" offset="0.742188"/><stop stop-opacity="1" stop-color="rgb(36.534119%, 78.353882%, 43.395996%)" offset="0.75"/><stop stop-opacity="1" stop-color="rgb(36.917114%, 78.555298%, 43.118286%)" offset="0.757812"/><stop stop-opacity="1" stop-color="rgb(37.30011%, 78.755188%, 42.842102%)" offset="0.765625"/><stop stop-opacity="1" stop-color="rgb(37.68158%, 78.956604%, 42.565918%)" offset="0.773437"/><stop stop-opacity="1" stop-color="rgb(38.064575%, 79.156494%, 42.289734%)" offset="0.78125"/><stop stop-opacity="1" stop-color="rgb(38.447571%, 79.356384%, 42.01355%)" offset="0.789063"/><stop stop-opacity="1" stop-color="rgb(38.829041%, 79.5578%, 41.73584%)" offset="0.796875"/><stop stop-opacity="1" stop-color="rgb(39.212036%, 79.75769%, 41.459656%)" offset="0.804688"/><stop stop-opacity="1" stop-color="rgb(39.595032%, 79.959106%, 41.183472%)" offset="0.8125"/><stop stop-opacity="1" stop-color="rgb(39.978027%, 80.158997%, 40.907288%)" offset="0.820312"/><stop stop-opacity="1" stop-color="rgb(40.359497%, 80.360413%, 40.631104%)" offset="0.828125"/><stop stop-opacity="1" stop-color="rgb(40.742493%, 80.560303%, 40.353394%)" offset="0.835938"/><stop stop-opacity="1" stop-color="rgb(41.125488%, 80.761719%, 40.077209%)" offset="0.84375"/><stop stop-opacity="1" stop-color="rgb(41.508484%, 80.961609%, 39.801025%)" offset="0.851562"/><stop stop-opacity="1" stop-color="rgb(41.889954%, 81.161499%, 39.524841%)" offset="0.859375"/><stop stop-opacity="1" stop-color="rgb(42.272949%, 81.362915%, 39.248657%)" offset="0.867187"/><stop stop-opacity="1" stop-color="rgb(42.655945%, 81.562805%, 38.972473%)" offset="0.875"/><stop stop-opacity="1" stop-color="rgb(43.037415%, 81.764221%, 38.694763%)" offset="0.882813"/><stop stop-opacity="1" stop-color="rgb(43.42041%, 81.964111%, 38.418579%)" offset="0.890625"/><stop stop-opacity="1" stop-color="rgb(43.803406%, 82.165527%, 38.142395%)" offset="0.898438"/><stop stop-opacity="1" stop-color="rgb(44.186401%, 82.365417%, 37.866211%)" offset="0.90625"/><stop stop-opacity="1" stop-color="rgb(44.567871%, 82.566833%, 37.590027%)" offset="0.914062"/><stop stop-opacity="1" stop-color="rgb(44.950867%, 82.766724%, 37.312317%)" offset="0.921875"/><stop stop-opacity="1" stop-color="rgb(45.333862%, 82.96814%, 37.036133%)" offset="0.929688"/><stop stop-opacity="1" stop-color="rgb(45.715332%, 83.16803%, 36.759949%)" offset="0.9375"/><stop stop-opacity="1" stop-color="rgb(46.098328%, 83.36792%, 36.483765%)" offset="0.945312"/><stop stop-opacity="1" stop-color="rgb(46.481323%, 83.569336%, 36.207581%)" offset="0.953125"/><stop stop-opacity="1" stop-color="rgb(46.864319%, 83.769226%, 35.929871%)" offset="0.960938"/><stop stop-opacity="1" stop-color="rgb(47.245789%, 83.970642%, 35.653687%)" offset="0.96875"/><stop stop-opacity="1" stop-color="rgb(47.628784%, 84.170532%, 35.377502%)" offset="0.976563"/><stop stop-opacity="1" stop-color="rgb(48.01178%, 84.371948%, 35.101318%)" offset="0.984375"/><stop stop-opacity="1" stop-color="rgb(48.394775%, 84.571838%, 34.825134%)" offset="0.992188"/><stop stop-opacity="1" stop-color="rgb(48.776245%, 84.773254%, 34.547424%)" offset="1"/></linearGradient><clipPath id="7841fedb68"><path d="M 6 8 L 33.941406 8 L 33.941406 31.960938 L 6 31.960938 Z M 6 8 " clip-rule="nonzero"/></clipPath><clipPath id="0a00e69178"><path d="M 2.5625 3.503906 L 29 3.503906 L 29 26 L 2.5625 26 Z M 2.5625 3.503906 " clip-rule="nonzero"/></clipPath><clipPath id="0e7e8130f2"><path d="M 4 7 L 35.511719 7 L 35.511719 33.5625 L 4 33.5625 Z M 4 7 " clip-rule="nonzero"/></clipPath><clipPath id="1ae704044d"><path d="M 0.488281 1.453125 L 31 1.453125 L 31 27 L 0.488281 27 Z M 0.488281 1.453125 " clip-rule="nonzero"/></clipPath><clipPath id="ca9d213990"><path d="M 34.050781 24.519531 L 35.511719 24.519531 L 35.511719 35.027344 L 34.050781 35.027344 Z M 34.050781 24.519531 " clip-rule="nonzero"/></clipPath><clipPath id="25bdb94f5a"><path d="M 34.050781 29 L 35.511719 29 L 35.511719 32 L 34.050781 32 Z M 34.050781 29 " clip-rule="nonzero"/></clipPath><clipPath id="8136218497"><path d="M 34.050781 34 L 35.511719 34 L 35.511719 35.027344 L 34.050781 35.027344 Z M 34.050781 34 " clip-rule="nonzero"/></clipPath><clipPath id="55a5177b7a"><path d="M 34.050781 26 L 35.511719 26 L 35.511719 28 L 34.050781 28 Z M 34.050781 26 " clip-rule="nonzero"/></clipPath></defs><g clip-path="url(#84a59cecd3)"><g clip-path="url(#156bbaebcb)"><path fill="url(#23c97e5c78)" d="M 0.792969 0 L 0.792969 35.027344 L 35.511719 35.027344 L 35.511719 0 Z M 0.792969 0 " fill-rule="nonzero"/></g></g><path fill="#000000" d="M 18.238281 20.578125 C 20.160156 20.578125 21.722656 18.996094 21.722656 17.050781 C 21.722656 15.105469 20.160156 13.523438 18.238281 13.523438 C 16.316406 13.523438 14.753906 15.105469 14.753906 17.050781 C 14.753906 18.996094 16.316406 20.578125 18.238281 20.578125 Z M 18.238281 14.027344 C 19.886719 14.027344 21.226562 15.382812 21.226562 17.050781 C 21.226562 18.71875 19.886719 20.074219 18.238281 20.074219 C 16.589844 20.074219 15.25 18.71875 15.25 17.050781 C 15.25 15.382812 16.589844 14.027344 18.238281 14.027344 Z M 18.238281 14.027344 " fill-opacity="1" fill-rule="nonzero"/><g clip-path="url(#7841fedb68)"><path fill="#000000" d="M 33.917969 17.507812 C 33.933594 17.367188 33.839844 17.242188 33.703125 17.226562 C 33.566406 17.207031 33.441406 17.304688 33.425781 17.445312 C 32.765625 22.789062 29.109375 27.320312 24.082031 29.058594 C 23.773438 28.265625 23.011719 27.699219 22.117188 27.699219 C 20.964844 27.699219 20.027344 28.640625 20.011719 29.804688 C 19.296875 29.824219 18.574219 29.792969 17.863281 29.703125 C 12.617188 29.042969 8.578125 24.75 8.164062 19.445312 C 8.273438 19.425781 8.382812 19.402344 8.484375 19.363281 C 8.492188 19.359375 8.5 19.355469 8.507812 19.351562 C 9.183594 19.089844 9.636719 18.429688 9.636719 17.695312 C 9.636719 17.609375 9.628906 17.519531 9.617188 17.425781 C 9.617188 17.425781 9.617188 17.425781 9.617188 17.421875 C 9.613281 17.417969 9.617188 17.417969 9.613281 17.414062 C 9.511719 16.746094 9.050781 16.207031 8.433594 16.003906 C 9.550781 11.671875 13.648438 8.839844 18.074219 9.398438 C 20.050781 9.644531 21.8125 10.726562 22.953125 12.371094 C 22.589844 12.640625 22.363281 13.074219 22.363281 13.542969 C 22.363281 14.347656 23.007812 15 23.804688 15 C 23.894531 15 23.984375 14.988281 24.074219 14.972656 C 24.234375 15.742188 24.269531 16.53125 24.171875 17.320312 C 23.929688 19.285156 22.667969 20.996094 20.875 21.785156 C 20.75 21.839844 20.691406 21.988281 20.75 22.117188 C 20.789062 22.210938 20.878906 22.269531 20.976562 22.269531 C 21.007812 22.269531 21.042969 22.261719 21.074219 22.246094 C 23.027344 21.386719 24.402344 19.519531 24.664062 17.382812 C 24.773438 16.507812 24.730469 15.640625 24.542969 14.792969 C 24.976562 14.53125 25.246094 14.0625 25.246094 13.542969 C 25.246094 12.738281 24.597656 12.082031 23.804688 12.082031 C 23.667969 12.082031 23.53125 12.105469 23.402344 12.144531 C 22.183594 10.347656 20.273438 9.167969 18.132812 8.898438 C 13.445312 8.308594 9.105469 11.316406 7.945312 15.917969 C 7.636719 15.90625 7.320312 15.976562 7.042969 16.128906 C 6.472656 16.441406 6.121094 17.042969 6.121094 17.695312 C 6.121094 17.976562 6.191406 18.261719 6.320312 18.515625 C 6.320312 18.515625 6.324219 18.519531 6.324219 18.519531 C 6.324219 18.523438 6.324219 18.527344 6.328125 18.527344 C 6.597656 19.042969 7.089844 19.382812 7.667969 19.457031 C 8.082031 25.011719 12.3125 29.511719 17.800781 30.203125 C 18.402344 30.277344 19.007812 30.316406 19.609375 30.316406 C 19.761719 30.316406 19.910156 30.308594 20.0625 30.304688 C 20.273438 31.269531 21.121094 31.972656 22.117188 31.972656 C 23.28125 31.972656 24.226562 31.015625 24.226562 29.835938 C 24.226562 29.738281 24.21875 29.644531 24.207031 29.550781 C 29.433594 27.757812 33.234375 23.054688 33.917969 17.507812 Z M 8.558594 18.761719 C 8.527344 18.574219 8.523438 18.339844 8.644531 18.144531 C 8.769531 17.949219 8.96875 17.839844 9.132812 17.777344 C 9.109375 18.179688 8.890625 18.546875 8.558594 18.761719 Z M 7.125 16.671875 C 7.25 16.824219 7.410156 17.113281 7.316406 17.523438 C 7.222656 17.925781 6.898438 18.070312 6.695312 18.125 C 6.644531 17.988281 6.617188 17.839844 6.617188 17.695312 C 6.617188 17.289062 6.808594 16.910156 7.125 16.671875 Z M 22.117188 31.46875 C 21.296875 31.46875 20.609375 30.84375 20.515625 30.019531 C 20.511719 29.960938 20.507812 29.898438 20.507812 29.835938 C 20.507812 28.9375 21.230469 28.203125 22.117188 28.203125 C 23.007812 28.203125 23.730469 28.9375 23.730469 29.835938 C 23.730469 30.738281 23.007812 31.46875 22.117188 31.46875 Z M 22.117188 31.46875 " fill-opacity="1" fill-rule="nonzero"/></g><g clip-path="url(#0a00e69178)"><path fill="#000000" d="M 11.160156 5.558594 C 11.394531 5.925781 11.800781 6.167969 12.265625 6.167969 C 12.992188 6.167969 13.582031 5.570312 13.582031 4.835938 C 13.582031 4.792969 13.574219 4.75 13.570312 4.707031 C 15.234375 4.289062 16.945312 4.183594 18.660156 4.398438 C 20.425781 4.621094 22.117188 5.273438 23.574219 6.289062 C 23.527344 6.355469 23.484375 6.425781 23.445312 6.496094 C 23.445312 6.496094 23.445312 6.496094 23.445312 6.5 C 23.441406 6.5 23.441406 6.5 23.441406 6.5 C 23.261719 6.839844 23.164062 7.222656 23.164062 7.609375 C 23.164062 7.832031 23.195312 8.054688 23.257812 8.269531 C 23.46875 8.988281 24.011719 9.558594 24.710938 9.796875 C 24.714844 9.800781 24.722656 9.804688 24.726562 9.804688 C 24.730469 9.804688 24.734375 9.808594 24.734375 9.808594 C 24.96875 9.886719 25.210938 9.925781 25.457031 9.925781 C 25.84375 9.925781 26.226562 9.828125 26.5625 9.640625 C 26.566406 9.636719 26.570312 9.636719 26.574219 9.632812 C 26.578125 9.628906 26.585938 9.628906 26.589844 9.625 C 26.621094 9.605469 26.652344 9.585938 26.683594 9.566406 C 28.050781 11.753906 28.628906 14.359375 28.3125 16.933594 C 28.019531 19.304688 26.832031 21.417969 24.972656 22.886719 C 23.109375 24.351562 20.796875 25 18.453125 24.703125 C 17.511719 24.585938 16.628906 24.285156 15.816406 23.8125 C 15.851562 23.742188 15.886719 23.671875 15.910156 23.601562 C 15.96875 23.425781 15.996094 23.25 15.996094 23.070312 C 15.996094 22.578125 15.777344 22.121094 15.398438 21.816406 C 15.394531 21.8125 15.386719 21.808594 15.382812 21.804688 C 15.378906 21.804688 15.378906 21.800781 15.375 21.800781 C 15.097656 21.585938 14.757812 21.46875 14.414062 21.46875 C 14.109375 21.46875 13.816406 21.554688 13.5625 21.71875 C 12.570312 20.277344 12.140625 18.535156 12.355469 16.777344 C 12.59375 14.820312 13.855469 13.109375 15.648438 12.3125 C 15.773438 12.257812 15.832031 12.109375 15.773438 11.980469 C 15.71875 11.855469 15.574219 11.796875 15.445312 11.851562 C 13.496094 12.71875 12.121094 14.582031 11.859375 16.714844 C 11.628906 18.617188 12.101562 20.503906 13.191406 22.054688 C 12.957031 22.339844 12.828125 22.699219 12.828125 23.070312 C 12.828125 23.957031 13.539062 24.675781 14.414062 24.675781 C 14.832031 24.675781 15.222656 24.511719 15.519531 24.21875 C 16.402344 24.742188 17.367188 25.074219 18.390625 25.203125 C 18.785156 25.253906 19.175781 25.277344 19.5625 25.277344 C 21.628906 25.277344 23.621094 24.585938 25.277344 23.28125 C 27.246094 21.734375 28.496094 19.5 28.804688 17 C 29.136719 14.289062 28.523438 11.546875 27.078125 9.25 C 27.230469 9.09375 27.363281 8.914062 27.46875 8.71875 C 27.625 8.429688 27.714844 8.117188 27.742188 7.792969 C 27.742188 7.789062 27.742188 7.78125 27.742188 7.777344 C 27.742188 7.773438 27.742188 7.773438 27.742188 7.769531 C 27.742188 7.765625 27.742188 7.765625 27.742188 7.765625 C 27.746094 7.714844 27.75 7.660156 27.75 7.609375 C 27.75 6.917969 27.449219 6.273438 26.929688 5.832031 C 26.304688 5.300781 25.40625 5.148438 24.644531 5.4375 C 24.632812 5.441406 24.625 5.445312 24.613281 5.453125 C 24.351562 5.554688 24.109375 5.710938 23.902344 5.90625 C 22.371094 4.828125 20.585938 4.132812 18.722656 3.898438 C 16.941406 3.671875 15.160156 3.785156 13.433594 4.222656 C 13.210938 3.785156 12.765625 3.503906 12.265625 3.503906 C 11.539062 3.503906 10.949219 4.101562 10.949219 4.835938 C 10.949219 4.925781 10.957031 5.007812 10.972656 5.089844 C 6.421875 7.1875 3.222656 11.574219 2.609375 16.597656 C 2.589844 16.734375 2.6875 16.859375 2.824219 16.875 C 2.835938 16.878906 2.84375 16.878906 2.855469 16.878906 C 2.980469 16.878906 3.085938 16.785156 3.101562 16.65625 C 3.695312 11.816406 6.773438 7.585938 11.160156 5.558594 Z M 15.488281 23.214844 C 15.332031 23.160156 15.140625 23.050781 15.09375 22.84375 C 15.050781 22.640625 15.144531 22.472656 15.238281 22.363281 C 15.40625 22.558594 15.5 22.804688 15.5 23.070312 C 15.5 23.121094 15.496094 23.167969 15.488281 23.214844 Z M 26.597656 9.011719 C 26.59375 9.015625 26.585938 9.019531 26.582031 9.027344 C 26.542969 9.054688 26.511719 9.078125 26.476562 9.101562 C 26.152344 8.855469 25.925781 8.585938 25.921875 8.429688 C 25.921875 8.410156 25.917969 8.378906 25.976562 8.335938 C 26.054688 8.273438 26.140625 8.304688 26.4375 8.519531 C 26.558594 8.605469 26.695312 8.699219 26.839844 8.765625 C 26.765625 8.855469 26.683594 8.9375 26.597656 9.011719 Z M 24.980469 6.710938 C 25.230469 6.988281 25.300781 7.09375 25.238281 7.207031 C 25.21875 7.246094 25.191406 7.269531 25.125 7.277344 C 24.875 7.300781 24.332031 6.976562 23.972656 6.589844 C 24.015625 6.523438 24.066406 6.460938 24.121094 6.398438 C 24.242188 6.257812 24.382812 6.144531 24.539062 6.050781 C 24.628906 6.316406 24.816406 6.527344 24.980469 6.710938 Z M 23.867188 8.445312 C 24.046875 8.460938 24.261719 8.515625 24.410156 8.664062 C 24.550781 8.808594 24.59375 9.023438 24.597656 9.199219 C 24.285156 9.027344 24.03125 8.765625 23.867188 8.445312 Z M 27.242188 7.449219 C 27.058594 7.382812 26.839844 7.261719 26.765625 7.035156 C 26.691406 6.8125 26.75 6.589844 26.820312 6.429688 C 27.0625 6.714844 27.210938 7.070312 27.242188 7.449219 Z M 27.242188 7.449219 " fill-opacity="1" fill-rule="nonzero"/></g><path fill="#000000" d="M 22.117188 28.820312 C 21.5625 28.820312 21.113281 29.277344 21.113281 29.835938 C 21.113281 30.398438 21.566406 30.855469 22.117188 30.855469 C 22.671875 30.855469 23.121094 30.398438 23.121094 29.835938 C 23.121094 29.277344 22.671875 28.820312 22.117188 28.820312 Z M 22.117188 28.820312 " fill-opacity="1" fill-rule="nonzero"/><path fill="#c1ff72" d="M 18.386719 20.726562 C 20.578125 20.726562 22.363281 18.9375 22.363281 16.742188 C 22.363281 14.546875 20.578125 12.761719 18.386719 12.761719 C 16.191406 12.761719 14.40625 14.546875 14.40625 16.742188 C 14.40625 18.9375 16.191406 20.726562 18.386719 20.726562 Z M 18.386719 13.332031 C 20.265625 13.332031 21.796875 14.863281 21.796875 16.742188 C 21.796875 18.625 20.265625 20.15625 18.386719 20.15625 C 16.503906 20.15625 14.972656 18.625 14.972656 16.742188 C 14.972656 14.863281 16.503906 13.332031 18.386719 13.332031 Z M 18.386719 13.332031 " fill-opacity="1" fill-rule="nonzero"/><g clip-path="url(#0e7e8130f2)"><path fill="#c1ff72" d="M 36.289062 17.257812 C 36.308594 17.101562 36.199219 16.960938 36.042969 16.941406 C 35.890625 16.921875 35.746094 17.03125 35.726562 17.1875 C 34.976562 23.21875 30.800781 28.335938 25.054688 30.296875 C 24.707031 29.402344 23.835938 28.761719 22.816406 28.761719 C 21.5 28.761719 20.429688 29.824219 20.40625 31.136719 C 19.59375 31.160156 18.769531 31.125 17.957031 31.023438 C 11.964844 30.277344 7.351562 25.429688 6.882812 19.445312 C 7.007812 19.425781 7.128906 19.394531 7.246094 19.351562 C 7.253906 19.347656 7.265625 19.34375 7.273438 19.339844 C 8.046875 19.046875 8.5625 18.300781 8.5625 17.46875 C 8.5625 17.371094 8.554688 17.273438 8.539062 17.167969 C 8.539062 17.167969 8.539062 17.164062 8.539062 17.164062 C 8.539062 17.164062 8.539062 17.164062 8.539062 17.160156 C 8.539062 17.160156 8.539062 17.15625 8.539062 17.152344 C 8.421875 16.402344 7.894531 15.792969 7.191406 15.5625 C 8.460938 10.671875 13.144531 7.476562 18.195312 8.109375 C 20.453125 8.386719 22.464844 9.605469 23.769531 11.460938 C 23.351562 11.765625 23.09375 12.253906 23.09375 12.78125 C 23.09375 13.691406 23.832031 14.429688 24.742188 14.429688 C 24.84375 14.429688 24.945312 14.417969 25.046875 14.398438 C 25.234375 15.265625 25.273438 16.15625 25.160156 17.046875 C 24.882812 19.261719 23.441406 21.195312 21.398438 22.085938 C 21.253906 22.148438 21.1875 22.316406 21.25 22.460938 C 21.296875 22.570312 21.402344 22.632812 21.511719 22.632812 C 21.550781 22.632812 21.589844 22.625 21.625 22.609375 C 23.851562 21.636719 25.421875 19.53125 25.722656 17.117188 C 25.847656 16.132812 25.796875 15.152344 25.582031 14.195312 C 26.078125 13.902344 26.386719 13.371094 26.386719 12.78125 C 26.386719 11.875 25.648438 11.136719 24.742188 11.136719 C 24.582031 11.136719 24.429688 11.160156 24.28125 11.203125 C 22.890625 9.175781 20.710938 7.847656 18.265625 7.542969 C 12.910156 6.878906 7.957031 10.273438 6.628906 15.464844 C 6.277344 15.453125 5.917969 15.53125 5.601562 15.703125 C 4.949219 16.054688 4.546875 16.734375 4.546875 17.46875 C 4.546875 17.789062 4.628906 18.109375 4.777344 18.398438 C 4.777344 18.398438 4.777344 18.402344 4.777344 18.402344 C 4.78125 18.40625 4.78125 18.40625 4.78125 18.410156 C 5.089844 18.992188 5.65625 19.375 6.3125 19.457031 C 6.789062 25.726562 11.617188 30.808594 17.886719 31.585938 C 18.570312 31.671875 19.261719 31.714844 19.953125 31.714844 C 20.125 31.714844 20.292969 31.707031 20.464844 31.703125 C 20.710938 32.789062 21.675781 33.582031 22.816406 33.582031 C 24.144531 33.582031 25.222656 32.503906 25.222656 31.171875 C 25.222656 31.0625 25.214844 30.957031 25.199219 30.847656 C 31.167969 28.828125 35.511719 23.519531 36.289062 17.257812 Z M 7.332031 18.675781 C 7.296875 18.464844 7.292969 18.195312 7.429688 17.976562 C 7.574219 17.757812 7.800781 17.632812 7.988281 17.5625 C 7.957031 18.019531 7.710938 18.429688 7.332031 18.675781 Z M 5.695312 16.316406 C 5.835938 16.488281 6.023438 16.816406 5.914062 17.273438 C 5.808594 17.730469 5.433594 17.894531 5.203125 17.957031 C 5.148438 17.800781 5.117188 17.636719 5.117188 17.46875 C 5.117188 17.011719 5.335938 16.585938 5.695312 16.316406 Z M 22.816406 33.015625 C 21.878906 33.015625 21.089844 32.3125 20.988281 31.378906 C 20.980469 31.3125 20.972656 31.242188 20.972656 31.171875 C 20.972656 30.15625 21.800781 29.332031 22.816406 29.332031 C 23.828125 29.332031 24.65625 30.15625 24.65625 31.171875 C 24.65625 32.1875 23.832031 33.015625 22.816406 33.015625 Z M 22.816406 33.015625 " fill-opacity="1" fill-rule="nonzero"/></g><g clip-path="url(#1ae704044d)"><path fill="#c1ff72" d="M 10.300781 3.773438 C 10.570312 4.1875 11.035156 4.464844 11.5625 4.464844 C 12.390625 4.464844 13.066406 3.789062 13.066406 2.960938 C 13.066406 2.910156 13.058594 2.859375 13.054688 2.8125 C 14.953125 2.339844 16.90625 2.21875 18.867188 2.460938 C 20.882812 2.714844 22.8125 3.453125 24.476562 4.597656 C 24.421875 4.671875 24.375 4.75 24.328125 4.832031 C 24.328125 4.835938 24.328125 4.835938 24.328125 4.835938 C 24.121094 5.21875 24.011719 5.648438 24.011719 6.085938 C 24.011719 6.339844 24.046875 6.589844 24.117188 6.832031 C 24.359375 7.644531 24.976562 8.285156 25.777344 8.558594 C 25.78125 8.5625 25.789062 8.5625 25.792969 8.566406 C 25.796875 8.566406 25.800781 8.570312 25.804688 8.570312 C 26.070312 8.660156 26.347656 8.703125 26.628906 8.703125 C 27.070312 8.703125 27.503906 8.589844 27.890625 8.378906 C 27.894531 8.375 27.898438 8.375 27.902344 8.371094 C 27.910156 8.367188 27.914062 8.367188 27.921875 8.363281 C 27.957031 8.34375 27.992188 8.316406 28.03125 8.296875 C 29.589844 10.765625 30.25 13.707031 29.886719 16.613281 C 29.554688 19.289062 28.199219 21.671875 26.074219 23.328125 C 23.949219 24.984375 21.304688 25.710938 18.628906 25.378906 C 17.554688 25.246094 16.546875 24.90625 15.621094 24.375 C 15.660156 24.296875 15.699219 24.214844 15.726562 24.132812 C 15.792969 23.941406 15.828125 23.738281 15.828125 23.539062 C 15.828125 22.980469 15.578125 22.464844 15.140625 22.121094 C 15.136719 22.117188 15.128906 22.113281 15.125 22.109375 C 15.121094 22.109375 15.117188 22.105469 15.113281 22.105469 C 14.796875 21.863281 14.410156 21.726562 14.015625 21.726562 C 13.667969 21.726562 13.332031 21.828125 13.046875 22.011719 C 11.910156 20.386719 11.421875 18.417969 11.664062 16.4375 C 11.941406 14.226562 13.378906 12.296875 15.425781 11.398438 C 15.570312 11.335938 15.636719 11.167969 15.574219 11.023438 C 15.507812 10.878906 15.339844 10.8125 15.199219 10.875 C 12.96875 11.855469 11.398438 13.957031 11.101562 16.367188 C 10.835938 18.511719 11.375 20.640625 12.621094 22.390625 C 12.355469 22.714844 12.207031 23.117188 12.207031 23.539062 C 12.207031 24.539062 13.015625 25.347656 14.015625 25.347656 C 14.492188 25.347656 14.941406 25.164062 15.28125 24.832031 C 16.285156 25.421875 17.386719 25.800781 18.558594 25.945312 C 19.007812 26 19.453125 26.027344 19.898438 26.027344 C 22.253906 26.027344 24.53125 25.25 26.421875 23.777344 C 28.667969 22.027344 30.101562 19.507812 30.453125 16.683594 C 30.832031 13.625 30.128906 10.53125 28.476562 7.9375 C 28.652344 7.761719 28.804688 7.558594 28.925781 7.339844 C 29.105469 7.011719 29.207031 6.660156 29.234375 6.296875 C 29.234375 6.289062 29.234375 6.285156 29.238281 6.277344 C 29.238281 6.273438 29.238281 6.273438 29.238281 6.269531 C 29.238281 6.265625 29.238281 6.265625 29.238281 6.261719 C 29.242188 6.203125 29.246094 6.148438 29.246094 6.085938 C 29.246094 5.308594 28.90625 4.578125 28.3125 4.082031 C 27.597656 3.480469 26.570312 3.308594 25.699219 3.636719 C 25.6875 3.640625 25.675781 3.648438 25.664062 3.652344 C 25.367188 3.769531 25.089844 3.945312 24.855469 4.164062 C 23.101562 2.949219 21.0625 2.164062 18.9375 1.898438 C 16.902344 1.644531 14.871094 1.773438 12.898438 2.265625 C 12.640625 1.769531 12.136719 1.453125 11.5625 1.453125 C 10.734375 1.453125 10.058594 2.128906 10.058594 2.960938 C 10.058594 3.058594 10.070312 3.152344 10.089844 3.246094 C 4.890625 5.613281 1.238281 10.5625 0.535156 16.230469 C 0.515625 16.386719 0.628906 16.527344 0.785156 16.546875 C 0.796875 16.546875 0.808594 16.550781 0.820312 16.550781 C 0.960938 16.550781 1.082031 16.445312 1.101562 16.300781 C 1.777344 10.835938 5.292969 6.0625 10.300781 3.773438 Z M 15.246094 23.699219 C 15.066406 23.636719 14.847656 23.515625 14.792969 23.28125 C 14.746094 23.050781 14.851562 22.863281 14.960938 22.738281 C 15.148438 22.960938 15.257812 23.238281 15.257812 23.539062 C 15.257812 23.59375 15.25 23.644531 15.246094 23.699219 Z M 27.929688 7.667969 C 27.925781 7.675781 27.917969 7.679688 27.910156 7.6875 C 27.871094 7.71875 27.832031 7.746094 27.792969 7.773438 C 27.421875 7.496094 27.164062 7.191406 27.160156 7.015625 C 27.15625 6.992188 27.15625 6.957031 27.21875 6.90625 C 27.3125 6.835938 27.410156 6.875 27.746094 7.113281 C 27.886719 7.214844 28.039062 7.320312 28.207031 7.394531 C 28.121094 7.496094 28.03125 7.585938 27.929688 7.667969 Z M 26.085938 5.070312 C 26.371094 5.386719 26.449219 5.503906 26.378906 5.632812 C 26.355469 5.675781 26.324219 5.703125 26.25 5.710938 C 25.960938 5.738281 25.34375 5.371094 24.933594 4.9375 C 24.984375 4.863281 25.039062 4.789062 25.101562 4.71875 C 25.238281 4.5625 25.402344 4.433594 25.578125 4.328125 C 25.683594 4.628906 25.898438 4.867188 26.085938 5.070312 Z M 24.8125 7.03125 C 25.015625 7.050781 25.261719 7.113281 25.433594 7.277344 C 25.59375 7.441406 25.640625 7.683594 25.648438 7.882812 C 25.289062 7.6875 25 7.390625 24.8125 7.03125 Z M 28.667969 5.90625 C 28.457031 5.832031 28.207031 5.695312 28.121094 5.441406 C 28.035156 5.1875 28.101562 4.9375 28.183594 4.757812 C 28.460938 5.078125 28.628906 5.476562 28.667969 5.90625 Z M 28.667969 5.90625 " fill-opacity="1" fill-rule="nonzero"/></g><path fill="#c1ff72" d="M 22.816406 30.023438 C 22.183594 30.023438 21.667969 30.539062 21.667969 31.171875 C 21.667969 31.804688 22.183594 32.320312 22.816406 32.320312 C 23.449219 32.320312 23.960938 31.804688 23.960938 31.171875 C 23.960938 30.539062 23.449219 30.023438 22.816406 30.023438 Z M 22.816406 30.023438 " fill-opacity="1" fill-rule="nonzero"/><g clip-path="url(#ca9d213990)"><path fill="#000000" d="M 45.566406 27.496094 C 45.757812 27.292969 45.90625 27.132812 45.796875 26.917969 C 45.734375 26.796875 45.574219 26.679688 45.15625 26.808594 C 45.125 26.820312 45.105469 26.804688 45.097656 26.792969 C 45.089844 26.785156 45.070312 26.757812 45.089844 26.726562 C 45.234375 26.464844 45.480469 26.199219 45.71875 25.949219 C 46.050781 25.597656 46.335938 25.292969 46.300781 25.027344 C 46.285156 24.917969 46.21875 24.828125 46.101562 24.761719 C 45.699219 24.523438 45.171875 25.050781 44.5625 25.664062 C 44.222656 26.007812 43.867188 26.363281 43.535156 26.574219 C 43.507812 26.59375 43.484375 26.582031 43.472656 26.574219 C 43.464844 26.566406 43.4375 26.546875 43.445312 26.507812 C 43.492188 26.324219 43.476562 26.179688 43.402344 26.082031 C 43.363281 26.027344 43.285156 25.960938 43.140625 25.949219 C 42.820312 25.925781 42.667969 26.121094 42.480469 26.367188 C 42.320312 26.570312 42.125 26.828125 41.753906 27.105469 C 41.535156 27.269531 41.285156 27.445312 41.023438 27.628906 C 40.234375 28.1875 39.335938 28.820312 38.59375 29.617188 C 37.773438 30.496094 36.984375 31.621094 36.175781 33.054688 C 35.988281 33.394531 35.820312 33.632812 35.699219 33.804688 C 35.511719 34.074219 35.398438 34.234375 35.429688 34.433594 C 35.449219 34.546875 35.507812 34.632812 35.597656 34.683594 C 35.660156 34.71875 35.738281 34.734375 35.8125 34.738281 C 35.414062 35.09375 34.894531 35.644531 35.070312 35.949219 C 35.113281 36.023438 35.175781 36.070312 35.253906 36.085938 C 35.386719 36.113281 35.535156 36.046875 35.65625 35.972656 C 35.460938 36.273438 35.164062 36.574219 34.875 36.871094 C 34.441406 37.316406 34.066406 37.703125 34.105469 38.023438 C 34.121094 38.144531 34.195312 38.246094 34.324219 38.320312 C 34.394531 38.367188 34.472656 38.386719 34.550781 38.386719 C 35.035156 38.386719 35.632812 37.628906 36.257812 36.832031 C 36.679688 36.300781 37.117188 35.75 37.480469 35.488281 C 37.507812 35.46875 37.53125 35.476562 37.542969 35.484375 C 37.554688 35.488281 37.582031 35.507812 37.578125 35.550781 C 37.539062 35.949219 37.785156 36.027344 37.894531 36.042969 C 38.140625 36.082031 38.269531 35.917969 38.433594 35.714844 C 38.554688 35.5625 38.703125 35.375 38.953125 35.171875 C 39.15625 35.007812 39.394531 34.832031 39.667969 34.628906 C 40.320312 34.152344 41.128906 33.558594 41.910156 32.757812 C 43.109375 31.53125 44.144531 29.789062 45 28.246094 C 45.199219 27.886719 45.410156 27.660156 45.566406 27.496094 Z M 41.753906 32.605469 C 40.984375 33.394531 40.183594 33.980469 39.539062 34.453125 C 39.261719 34.660156 39.019531 34.835938 38.8125 35.003906 C 38.542969 35.222656 38.378906 35.429688 38.261719 35.582031 C 38.101562 35.777344 38.042969 35.847656 37.925781 35.828125 C 37.882812 35.824219 37.773438 35.804688 37.796875 35.570312 C 37.808594 35.457031 37.753906 35.351562 37.652344 35.296875 C 37.554688 35.242188 37.441406 35.246094 37.347656 35.3125 C 36.960938 35.59375 36.515625 36.15625 36.085938 36.699219 C 35.476562 37.472656 34.785156 38.347656 34.4375 38.136719 C 34.34375 38.082031 34.328125 38.03125 34.324219 37.996094 C 34.296875 37.777344 34.671875 37.394531 35.035156 37.019531 C 35.351562 36.695312 35.679688 36.359375 35.886719 36.011719 C 35.9375 35.929688 35.921875 35.828125 35.847656 35.765625 C 35.808594 35.730469 35.761719 35.710938 35.710938 35.710938 C 35.671875 35.710938 35.628906 35.722656 35.589844 35.75 C 35.445312 35.855469 35.34375 35.882812 35.296875 35.875 C 35.285156 35.871094 35.273438 35.863281 35.261719 35.84375 C 35.167969 35.679688 35.707031 35.085938 36.269531 34.632812 C 36.3125 34.597656 36.324219 34.539062 36.296875 34.492188 C 36.265625 34.445312 36.210938 34.429688 36.160156 34.449219 C 36.058594 34.488281 35.816406 34.554688 35.707031 34.496094 C 35.683594 34.484375 35.65625 34.460938 35.648438 34.402344 C 35.628906 34.292969 35.707031 34.175781 35.878906 33.929688 C 36.003906 33.75 36.175781 33.507812 36.367188 33.160156 C 37.167969 31.742188 37.949219 30.628906 38.757812 29.761719 C 39.480469 28.984375 40.371094 28.359375 41.152344 27.804688 C 41.414062 27.621094 41.664062 27.445312 41.886719 27.277344 C 42.28125 26.980469 42.496094 26.703125 42.652344 26.5 C 42.851562 26.238281 42.929688 26.152344 43.121094 26.167969 C 43.199219 26.171875 43.21875 26.203125 43.226562 26.210938 C 43.257812 26.253906 43.261719 26.339844 43.234375 26.457031 C 43.207031 26.570312 43.25 26.683594 43.347656 26.75 C 43.441406 26.816406 43.558594 26.820312 43.65625 26.757812 C 44.007812 26.53125 44.371094 26.167969 44.71875 25.816406 C 45.21875 25.316406 45.734375 24.796875 45.988281 24.949219 C 46.066406 24.992188 46.078125 25.03125 46.082031 25.058594 C 46.105469 25.222656 45.828125 25.515625 45.558594 25.796875 C 45.324219 26.050781 45.054688 26.335938 44.898438 26.621094 C 44.84375 26.722656 44.855469 26.84375 44.925781 26.929688 C 45 27.019531 45.113281 27.050781 45.222656 27.015625 C 45.425781 26.953125 45.570312 26.953125 45.601562 27.015625 C 45.640625 27.085938 45.59375 27.144531 45.40625 27.347656 C 45.242188 27.519531 45.019531 27.757812 44.804688 28.140625 C 43.960938 29.671875 42.933594 31.398438 41.753906 32.605469 Z M 41.753906 32.605469 " fill-opacity="1" fill-rule="nonzero"/></g><g clip-path="url(#25bdb94f5a)"><path fill="#000000" d="M 35.445312 30.175781 C 35.445312 30.117188 35.394531 30.070312 35.335938 30.070312 C 35.0625 30.070312 34.917969 29.726562 34.917969 29.390625 C 34.917969 29.328125 34.867188 29.28125 34.808594 29.28125 C 34.746094 29.28125 34.699219 29.328125 34.699219 29.390625 C 34.699219 29.726562 34.554688 30.070312 34.28125 30.070312 C 34.222656 30.070312 34.171875 30.117188 34.171875 30.175781 C 34.171875 30.238281 34.222656 30.285156 34.28125 30.285156 C 34.527344 30.285156 34.699219 30.644531 34.699219 30.96875 C 34.699219 31.027344 34.746094 31.074219 34.808594 31.074219 C 34.867188 31.074219 34.917969 31.027344 34.917969 30.96875 C 34.917969 30.644531 35.089844 30.285156 35.335938 30.285156 C 35.394531 30.285156 35.445312 30.238281 35.445312 30.175781 Z M 34.808594 30.464844 C 34.753906 30.351562 34.683594 30.253906 34.59375 30.183594 C 34.679688 30.117188 34.753906 30.027344 34.808594 29.914062 C 34.863281 30.027344 34.9375 30.117188 35.023438 30.183594 C 34.933594 30.253906 34.863281 30.351562 34.808594 30.464844 Z M 34.808594 30.464844 " fill-opacity="1" fill-rule="nonzero"/></g><g clip-path="url(#8136218497)"><path fill="#000000" d="M 34.730469 34.625 C 34.660156 34.699219 34.617188 34.789062 34.609375 34.886719 C 34.601562 34.984375 34.632812 35.082031 34.703125 35.148438 C 34.765625 35.210938 34.847656 35.242188 34.9375 35.242188 C 34.949219 35.242188 34.957031 35.242188 34.96875 35.242188 C 35.066406 35.234375 35.160156 35.191406 35.230469 35.121094 C 35.382812 34.96875 35.398438 34.734375 35.261719 34.597656 C 35.125 34.460938 34.886719 34.472656 34.730469 34.625 Z M 35.074219 34.964844 C 35.007812 35.03125 34.910156 35.046875 34.855469 34.996094 C 34.804688 34.945312 34.820312 34.847656 34.886719 34.78125 C 34.953125 34.714844 35.054688 34.699219 35.105469 34.75 C 35.15625 34.800781 35.144531 34.898438 35.074219 34.964844 Z M 35.074219 34.964844 " fill-opacity="1" fill-rule="nonzero"/></g><g clip-path="url(#55a5177b7a)"><path fill="#000000" d="M 34.902344 27.960938 C 35.363281 27.960938 35.738281 27.589844 35.738281 27.132812 C 35.738281 26.671875 35.363281 26.300781 34.902344 26.300781 C 34.441406 26.300781 34.066406 26.675781 34.066406 27.132812 C 34.066406 27.589844 34.441406 27.960938 34.902344 27.960938 Z M 34.902344 26.519531 C 35.242188 26.519531 35.519531 26.792969 35.519531 27.132812 C 35.519531 27.46875 35.242188 27.742188 34.902344 27.742188 C 34.5625 27.742188 34.285156 27.46875 34.285156 27.132812 C 34.285156 26.792969 34.5625 26.519531 34.902344 26.519531 Z M 34.902344 26.519531 " fill-opacity="1" fill-rule="nonzero"/></g></svg>